<?xml version="1.0" standalone="no"?>
<!DOCTYPE svg PUBLIC "-//W3C//DTD SVG 20010904//EN"
 "http://www.w3.org/TR/2001/REC-SVG-20010904/DTD/svg10.dtd">
<svg version="1.0" xmlns="http://www.w3.org/2000/svg"
 width="500.000000pt" height="500.000000pt" viewBox="0 0 500.000000 500.000000"
 preserveAspectRatio="xMidYMid meet">
<metadata>
Created by potrace 1.11, written by Peter Selinger 2001-2013
</metadata>
<g transform="translate(0.000000,500.000000) scale(0.100000,-0.100000)"
fill="#000000" stroke="none">
<path d="M4540 4734 c-14 -3 -97 -14 -185 -25 -160 -21 -1180 -174 -1222 -184
-12 -3 -20 -11 -18 -18 2 -6 18 -100 35 -207 32 -206 44 -259 65 -275 7 -6 14
-19 17 -30 2 -13 10 -19 23 -18 11 2 137 21 279 43 143 22 261 38 263 36 8 -8
-398 -546 -412 -546 -7 0 -54 13 -103 29 -178 59 -360 80 -527 62 l-100 -10
-55 38 c-228 160 -559 243 -844 212 -275 -29 -500 -125 -721 -305 -72 -59 -98
-88 -194 -216 -81 -108 -112 -163 -150 -265 -51 -135 -69 -198 -76 -278 -4
-39 -9 -75 -11 -79 -3 -4 -5 -72 -5 -150 0 -155 23 -321 62 -438 36 -110 109
-262 161 -334 75 -104 77 -109 42 -154 -17 -20 -47 -63 -68 -94 l-38 -58 -26
21 c-15 11 -63 46 -107 78 -44 31 -122 87 -174 125 -51 37 -99 66 -106 64 -13
-3 -196 -246 -262 -348 -21 -31 -33 -62 -33 -84 0 -30 9 -40 93 -108 50 -41
124 -97 162 -125 121 -89 120 -72 18 -212 -188 -258 -194 -278 -98 -358 70
-58 324 -243 334 -243 4 0 74 90 155 200 81 110 151 200 155 200 5 0 26 -13
47 -30 88 -66 348 -252 358 -256 6 -2 27 18 46 44 248 338 260 355 254 374 -3
10 -1 24 4 31 14 16 -1 35 -62 78 -26 18 -61 43 -76 54 -15 11 -66 47 -111 79
-46 33 -94 68 -106 79 l-22 20 60 79 c34 44 70 83 81 87 13 5 60 -4 132 -26
61 -18 152 -40 201 -48 102 -17 288 -19 387 -5 l67 10 88 -53 c188 -112 349
-166 562 -187 454 -47 934 181 1180 560 104 158 158 286 198 465 25 113 25
378 -1 495 -45 208 -121 381 -234 528 l-63 83 20 33 c20 32 90 131 288 409 54
75 101 137 105 137 11 0 14 -18 48 -245 38 -253 47 -294 76 -324 27 -27 24
-27 327 16 167 25 187 29 187 46 0 11 -27 191 -60 401 -162 1037 -172 1093
-198 1112 -16 13 -59 16 -112 8z m-2570 -1471 c0 -3 -26 -36 -58 -72 -146
-165 -244 -345 -292 -535 -35 -138 -55 -308 -46 -396 11 -109 45 -284 70 -358
l24 -71 -36 14 c-124 44 -262 139 -346 236 -41 48 -106 171 -131 247 -21 67
-43 203 -39 245 11 111 39 210 82 292 39 75 127 184 187 232 62 50 192 121
255 142 76 24 330 43 330 24z m1330 -328 c99 -63 138 -102 197 -193 145 -224
159 -510 38 -767 -63 -134 -213 -275 -363 -342 -96 -42 -339 -85 -391 -68 -19
6 -15 13 42 78 264 302 379 702 322 1117 -8 58 -23 139 -34 180 -11 41 -21 78
-21 82 0 15 147 -46 210 -87z m-753 -58 c76 -135 110 -321 83 -452 -31 -154
-124 -325 -221 -406 -91 -78 -150 -119 -168 -119 -42 0 -111 257 -111 412 0
170 88 374 216 503 59 58 146 125 159 121 6 -1 24 -28 42 -59z"/>
</g>
</svg>
