<?xml version="1.0" encoding="iso-8859-1"?>
<!-- Generator: Adobe Illustrator 19.0.0, SVG Export Plug-In . SVG Version: 6.00 Build 0)  -->
<svg version="1.1" id="Capa_1" xmlns="http://www.w3.org/2000/svg" xmlns:xlink="http://www.w3.org/1999/xlink" x="0px" y="0px"
	 viewBox="0 0 512 512" style="enable-background:new 0 0 512 512;" xml:space="preserve">
<g>
	<path style="fill:#D76A85;" d="M126.152,153.848c56.328,0,102.152,45.824,102.152,102.152S182.48,358.152,126.152,358.152
		S24,312.328,24,256S69.824,153.848,126.152,153.848 M126.152,129.848C56.48,129.848,0,186.328,0,256s56.48,126.152,126.152,126.152
		S252.304,325.672,252.304,256S195.824,129.848,126.152,129.848L126.152,129.848z"/>
	<rect x="228.088" y="244" style="fill:#D76A85;" width="139.408" height="24"/>
	<path style="fill:#D76A85;" d="M371.28,193.592L467.8,256l-96.52,62.408V193.592 M347.28,149.488v213.016L512,256L347.28,149.488
		L347.28,149.488z"/>
</g>
<g>
</g>
<g>
</g>
<g>
</g>
<g>
</g>
<g>
</g>
<g>
</g>
<g>
</g>
<g>
</g>
<g>
</g>
<g>
</g>
<g>
</g>
<g>
</g>
<g>
</g>
<g>
</g>
<g>
</g>
</svg>
