<?xml version="1.0" encoding="iso-8859-1"?>
<!-- Generator: Adobe Illustrator 18.1.1, SVG Export Plug-In . SVG Version: 6.00 Build 0)  -->
<svg version="1.1" id="Capa_1" xmlns="http://www.w3.org/2000/svg" xmlns:xlink="http://www.w3.org/1999/xlink" x="0px" y="0px"
	 viewBox="0 0 243.133 243.133" style="enable-background:new 0 0 243.133 243.133;" xml:space="preserve">
<g>
	<path style="fill:#010002;" d="M230.002,42.367c-8.452-11.34-21.68-20.255-41.701-19.499c-10.459,0-20.195,3.008-28.484,8.121
		c-17.187,9.703-27.804,25.928-33.222,36.355c-2.768,5.33-5.95,5.232-9.17,0.163c-2.866-4.514-6.505-9.214-9.66-13.037
		c-3.824-4.634-9.861-12.303-14.196-16.459c-9.763-9.372-23.013-15.137-37.611-15.137c-17.487,0-33.015,8.278-42.952,21.114
		c-3.677,4.748-7.729,11.602-9.301,15.028c-0.903,1.974-1.626,4.123-2.132,6.478c-9.981,46.232,30.829,75.239,30.829,75.239
		c52.781,35.392,75.086,62.277,83.908,75.706c3.296,5.026,7.598,5.227,10.894,0.207c8.055-12.249,24.655-34.136,49.327-50.534
		c64.545-42.892,63.463-71.943,66.172-81.581c0.598-2.138,0.62-6.445-0.228-11.835C241.505,61.191,237.002,50.715,230.002,42.367z"
		/>
</g>
<g>
</g>
<g>
</g>
<g>
</g>
<g>
</g>
<g>
</g>
<g>
</g>
<g>
</g>
<g>
</g>
<g>
</g>
<g>
</g>
<g>
</g>
<g>
</g>
<g>
</g>
<g>
</g>
<g>
</g>
</svg>
